<svg xmlns="http://www.w3.org/2000/svg" width="123" height="25" viewBox="0 0 123 25">
  <metadata><?xpacket begin="﻿" id="W5M0MpCehiHzreSzNTczkc9d"?>
<x:xmpmeta xmlns:x="adobe:ns:meta/" x:xmptk="Adobe XMP Core 5.6-c142 79.160924, 2017/07/13-01:06:39        ">
   <rdf:RDF xmlns:rdf="http://www.w3.org/1999/02/22-rdf-syntax-ns#">
      <rdf:Description rdf:about=""/>
   </rdf:RDF>
</x:xmpmeta>
                                                                                                    
                                                                                                    
                                                                                                    
                                                                                                    
                                                                                                    
                                                                                                    
                                                                                                    
                                                                                                    
                                                                                                    
                                                                                                    
                                                                                                    
                                                                                                    
                                                                                                    
                                                                                                    
                                                                                                    
                                                                                                    
                                                                                                    
                                                                                                    
                                                                                                    
                                                                                                    
                           
<?xpacket end="w"?></metadata>
<defs>
    <style>
      .cls-1 {
        font-size: 83.444px;
        text-anchor: middle;
        font-family: Roboto;
      }

      .cls-1, .cls-2 {
        fill: #fff;
      }

      .cls-2 {
        fill-rule: evenodd;
      }
    </style>
  </defs>
  <text id="GraphQL" class="cls-1" transform="translate(76.479 19.69) scale(0.288)"><tspan x="0">GraphQL</tspan></text>
  <path class="cls-2" d="M20.9,15.079a2.249,2.249,0,0,0-.585-0.227v-5.7A2.244,2.244,0,0,0,20.9,8.921,2.1,2.1,0,0,0,21.7,6,2.239,2.239,0,0,0,18.7,5.217,2.2,2.2,0,0,0,18.2,5.6L13.113,2.744a2.083,2.083,0,0,0,.09-0.605,2.2,2.2,0,0,0-4.405,0,2.08,2.08,0,0,0,.09.606L3.8,5.6A2.194,2.194,0,0,0,3.3,5.217,2.239,2.239,0,0,0,.3,6,2.1,2.1,0,0,0,1.1,8.921a2.243,2.243,0,0,0,.585.227v5.7a2.246,2.246,0,0,0-.585.227A2.1,2.1,0,0,0,.3,18a2.239,2.239,0,0,0,3.009.783A2.2,2.2,0,0,0,3.8,18.4l5.088,2.852a2.082,2.082,0,0,0-.09.605,2.2,2.2,0,0,0,4.405,0,2.076,2.076,0,0,0-.111-0.67l5.061-2.837a2.189,2.189,0,0,0,.542.428A2.239,2.239,0,0,0,21.7,18,2.1,2.1,0,0,0,20.9,15.079ZM4.344,16.426a2.1,2.1,0,0,0-.233-0.564,2.147,2.147,0,0,0-.383-0.475l6.658-11.2a2.264,2.264,0,0,0,1.228,0l6.658,11.2a2.146,2.146,0,0,0-.382.473,2.108,2.108,0,0,0-.233.564H4.344ZM17.68,6.481a2.077,2.077,0,0,0,.209,1.658,2.19,2.19,0,0,0,1.374,1v5.713l-0.083.022-6.658-11.2,0.061-.059ZM9.417,3.624L9.476,3.682l-6.658,11.2-0.081-.021V9.143a2.19,2.19,0,0,0,1.374-1A2.076,2.076,0,0,0,4.32,6.481Zm3.215,16.8a2.247,2.247,0,0,0-3.216-.05l-5.1-2.857c0.007-.025.014-0.05,0.02-0.074H17.659c0.012,0.047.025,0.094,0.041,0.14Z"/>
</svg>
